<?xml version="1.0" encoding="UTF-8" standalone="no"?>
<!-- Created with Inkscape (http://www.inkscape.org/) -->

<svg
   width="180"
   height="180"
   viewBox="0 0 180 180"
   version="1.1"
   id="svg1"
   inkscape:version="1.3.2 (091e20ef0f, 2023-11-25)"
   sodipodi:docname="logo1.svg"
   xmlns:inkscape="http://www.inkscape.org/namespaces/inkscape"
   xmlns:sodipodi="http://sodipodi.sourceforge.net/DTD/sodipodi-0.dtd"
   xmlns="http://www.w3.org/2000/svg"
   xmlns:svg="http://www.w3.org/2000/svg">
  <sodipodi:namedview
     id="namedview1"
     pagecolor="#505050"
     bordercolor="#eeeeee"
     borderopacity="1"
     inkscape:showpageshadow="0"
     inkscape:pageopacity="0"
     inkscape:pagecheckerboard="0"
     inkscape:deskcolor="#d1d1d1"
     inkscape:document-units="px"
     inkscape:zoom="3.8932955"
     inkscape:cx="109.29045"
     inkscape:cy="87.971746"
     inkscape:window-width="1920"
     inkscape:window-height="1011"
     inkscape:window-x="0"
     inkscape:window-y="0"
     inkscape:window-maximized="1"
     inkscape:current-layer="layer1" />
  <defs
     id="defs1" />
  <g
     inkscape:label="Calque 1"
     inkscape:groupmode="layer"
     id="layer1">
    <path
       style="fill:#000000;stroke-width:43.733"
       id="path16"
       d="m 33.009204,115.15709 c -1.662704,1.49674 -3.118878,3.23222 -4.296139,5.1364 -0.357912,0.57891 -0.672016,1.18379 -1.008024,1.77568 -1.243384,2.46414 -2.203158,5.07049 -2.693516,7.79284 -0.338428,1.87887 -0.307439,2.40964 -0.404833,4.29207 -0.02283,3.31583 0.719002,6.54465 2.349383,9.44827 1.119998,1.99465 1.685873,2.48057 3.160597,4.19157 2.529167,2.55332 5.609188,4.42481 8.994076,5.61542 2.150638,0.75647 3.03165,0.86269 5.249948,1.3232 4.585033,0.70564 9.34488,0.85851 13.860107,-0.38447 1.027873,-0.28296 2.017358,-0.69037 3.026037,-1.03556 0.973079,-0.47487 1.977019,-0.89113 2.919239,-1.42462 3.831795,-2.16957 7.083933,-5.29544 9.813064,-8.72268 0.697854,-0.87637 1.329487,-1.80348 1.99423,-2.70522 2.619733,-3.86651 4.683483,-8.08659 6.022421,-12.56534 0.919267,-3.07495 1.002303,-4.06033 1.567126,-7.22003 0.727695,-5.24061 0.638504,-10.57044 -0.32731,-15.77627 -0.664549,-3.58198 -1.116295,-4.6762 -2.191923,-8.130863 -1.929154,-5.315916 -4.68591,-10.307184 -8.287822,-14.677026 -2.432454,-2.951054 -3.132529,-3.409299 -5.946488,-5.982172 -4.497808,-3.343436 -2.209464,-1.800173 -6.853241,-4.647226 -9.153137,-5.522564 -16.963221,7.421926 -7.810084,12.94449 v 0 c 3.116801,1.835944 1.598556,0.854642 4.554557,2.944181 1.890426,1.657297 2.37751,1.964562 4.024166,3.895515 2.549148,2.989262 4.513943,6.423125 5.907383,10.090071 0.789135,2.43052 1.143275,3.28211 1.649004,5.78153 0.731004,3.61278 0.845766,7.32447 0.385253,10.97874 -0.367383,2.2248 -0.407365,2.85004 -1.00814,5.00398 -0.840971,3.01509 -2.195232,5.85396 -3.910764,8.46742 -0.430249,0.60362 -0.838771,1.22334 -1.290747,1.81088 -1.749216,2.27385 -3.805008,4.39874 -6.375311,5.72633 -1.018085,0.42543 -1.339575,0.62157 -2.431502,0.83069 -2.08968,0.4002 -4.255996,0.23503 -6.348154,-0.0316 -2.108106,-0.38296 -4.270193,-0.82311 -5.959628,-2.23584 -0.485709,-0.4571 -1.142026,-0.99533 -1.400167,-1.63987 -0.181986,-0.45439 -0.176352,-0.77833 -0.229156,-1.27236 0.0081,-0.72986 -0.01109,-1.0271 0.0868,-1.75173 0.172058,-1.27374 0.617114,-2.48001 1.149321,-3.64351 0.533197,-1.05333 1.165849,-2.07052 2.056978,-2.86169 8.019429,-7.06877 -1.97731,-18.40995 -9.996738,-11.34119 z" />
    <path
       style="fill:#000000;stroke-width:43.733"
       id="path17"
       d="m 42.502404,88.699968 c -0.738121,0.07455 -1.431599,-0.133188 -2.126344,-0.349211 -1.400652,-0.481497 -2.513634,-1.47234 -3.50973,-2.536111 -1.023563,-1.279901 -1.719321,-2.768424 -2.072366,-4.368568 -0.07377,-0.334337 -0.109396,-0.675962 -0.164093,-1.013942 -0.180076,-1.672948 -0.06281,-3.361175 0.327089,-4.997652 0.291331,-1.222757 0.571449,-1.935245 0.986395,-3.144388 1.251525,-3.384587 3.148806,-6.464703 5.320957,-9.330729 0.519834,-0.68589 1.069304,-1.348807 1.603956,-2.023211 2.779997,-3.366294 6.135987,-6.185051 9.719325,-8.658375 0.766679,-0.529185 1.556699,-1.023728 2.335049,-1.535591 4.318753,-2.558794 8.893171,-4.70951 13.606495,-6.43905 0.977663,-0.35875 1.970017,-0.676119 2.955025,-1.014179 4.79491,-1.545134 9.764915,-2.521592 14.791257,-2.875255 0.93545,-0.06582 1.873706,-0.08259 2.810559,-0.123884 3.378145,-0.04154 6.76068,0.220886 10.068075,0.925265 1.920507,0.409013 2.467417,0.61047 4.328627,1.163222 2.57719,0.869883 5.19574,1.719705 7.56966,3.075095 1.05874,0.604488 1.66847,1.090717 2.65497,1.808754 1.52393,1.157763 2.84219,2.555238 3.75253,4.249004 0.53494,0.995304 0.65504,1.473533 1.03345,2.547688 0.59973,2.154023 0.90372,4.484229 0.36493,6.689108 -0.094,0.384593 -0.24002,0.754565 -0.36003,1.131847 -0.91179,2.617588 -2.54462,4.828188 -4.50051,6.764158 -0.50987,0.50468 -1.05752,0.969706 -1.58628,1.454559 -3.34865,2.776258 -7.0755,5.138342 -11.02802,6.963673 -0.78016,0.360289 -1.585119,0.664242 -2.37768,0.996363 -0.753796,0.272108 -1.507592,0.544217 -2.261388,0.816325 -10.039184,3.673337 -4.844301,17.870888 5.194888,14.197551 v 0 c 1.00004,-0.369624 2.00009,-0.739247 3.00014,-1.10887 1.09695,-0.474183 2.20965,-0.91346 3.29084,-1.422549 5.23192,-2.463501 10.14269,-5.647611 14.52415,-9.416113 2.06691,-1.967129 2.77803,-2.51917 4.57128,-4.706647 2.60167,-3.173646 4.58342,-6.762793 5.79259,-10.689747 0.24266,-1.000405 0.5463,-1.987961 0.728,-3.001215 0.84699,-4.723423 0.23816,-9.570599 -1.24321,-14.097416 -0.97861,-2.443631 -1.15839,-3.175563 -2.52666,-5.448256 -1.95075,-3.240209 -4.5874,-5.98066 -7.60602,-8.238844 -1.93102,-1.35428 -2.50948,-1.836994 -4.61142,-2.988563 -3.20577,-1.75631 -6.67376,-2.963417 -10.13898,-4.088077 -2.52094,-0.726775 -3.30321,-1.005985 -5.90804,-1.5337 -4.421649,-0.895787 -8.935534,-1.236876 -13.443212,-1.143698 -1.190298,0.05975 -2.382491,0.08939 -3.570896,0.179243 -6.204593,0.469135 -12.336058,1.705191 -18.250963,3.631833 -1.181084,0.410395 -2.370807,0.796722 -3.543252,1.231186 -5.700991,2.112572 -11.227629,4.743193 -16.422097,7.902392 -0.964171,0.640879 -1.942882,1.260405 -2.892513,1.922637 -4.706112,3.28184 -9.060524,7.071197 -12.696252,11.524498 -1.700059,2.168728 -2.347167,2.91228 -3.880448,5.191308 -2.255562,3.352608 -4.147963,6.939406 -5.514275,10.746786 -0.716667,2.198904 -1.08326,3.11348 -1.547893,5.397557 -0.703344,3.457557 -0.792217,7.004761 -0.242897,10.489986 0.477905,2.208296 0.508514,2.7461 1.300003,4.852581 1.152758,3.067967 2.873933,5.864087 5.095958,8.272871 0.530825,0.513846 1.040592,1.050378 1.592475,1.541538 2.496981,2.222235 5.432151,3.910465 8.635425,4.871915 0.565226,0.14512 1.124935,0.31373 1.695677,0.43536 1.883589,0.4014 3.817911,0.53276 5.737154,0.37622 10.646683,-0.9627 9.285222,-16.01938 -1.36146,-15.056682 z" />
    <path
       style="fill:#000000;stroke-width:43.733"
       id="path23"
       d="m 92.813882,134.85958 c -1.601719,1.83336 -2.307682,4.15671 -2.83936,6.48092 -0.409415,2.17595 -0.369244,4.3832 0.185589,6.53106 0.345853,1.33886 0.618869,1.8372 1.160696,3.08265 1.094546,2.21368 2.696502,4.08058 4.767623,5.43703 1.286852,0.8428 1.773043,0.96311 3.176363,1.5342 2.921667,0.89828 5.502937,0.85528 8.277737,-0.58521 1.66398,-0.86383 2.24668,-1.59301 3.58048,-2.85907 2.73867,-3.18655 4.39142,-7.0626 5.25288,-11.15035 0.17278,-0.81989 0.27966,-1.6523 0.41949,-2.47845 0.6803,-4.68037 0.20875,-9.38092 -0.37488,-14.03877 -0.55127,-3.56598 -0.86687,-7.15616 -0.78962,-10.76415 0.11375,-1.80547 0.37632,-3.62285 1.2245,-5.23859 -0.63685,0.43877 0.35436,-0.48846 0.32582,-0.33526 -0.0968,0.51956 -0.83886,0.82263 -1.25086,0.97434 -0.0843,0.0371 -0.28829,0.0262 -0.25297,0.11128 0.0689,0.16589 0.29129,0.21043 0.43259,0.32134 0.25533,0.20043 0.51565,0.3955 0.75707,0.61249 0.34021,0.3058 0.66866,0.62506 0.98614,0.95439 1.15652,1.1997 1.40384,1.56277 2.49221,2.89627 3.01331,3.96673 5.5013,8.28976 7.83684,12.67897 1.82996,3.54489 3.62403,7.10822 5.35507,10.70245 3.47935,7.22329 13.69462,2.30276 10.21528,-4.92053 v 0 c -1.79816,-3.73258 -3.66061,-7.4337 -5.56368,-11.11389 -2.69588,-5.05314 -5.58069,-10.02419 -9.09589,-14.56105 -2.25205,-2.70971 -4.53056,-5.40462 -7.60403,-7.23056 -0.68917,-0.40944 -1.40107,-0.79343 -2.15277,-1.07191 -0.84105,-0.31159 -1.73398,-0.45948 -2.60097,-0.68922 -0.86512,0.008 -1.73809,-0.0918 -2.59536,0.0248 -2.21333,0.30109 -4.16615,1.46734 -5.6806,3.06574 -0.88376,0.93274 -1.2171,1.63933 -1.84934,2.72295 -0.2185,0.47866 -0.45854,0.94806 -0.6555,1.43598 -1.08398,2.68516 -1.50512,5.58324 -1.66034,8.45792 -0.01,0.64602 -0.0333,1.29197 -0.0293,1.93805 0.0215,3.50011 0.41771,6.98194 0.90584,10.44353 0.45275,3.58248 0.89564,7.19715 0.43284,10.8057 -0.0823,0.54151 -0.14538,1.08628 -0.24688,1.62451 -0.39038,2.07006 -1.09417,4.07734 -2.27793,5.83129 -0.11047,0.14284 -0.23263,0.27736 -0.33141,0.42851 -0.0343,0.0525 -0.11275,0.13715 -0.0642,0.17683 0.0512,0.0419 1.01915,0.061 0.79623,0.21583 -0.0562,0.0391 -0.13684,0.005 -0.20526,0.008 -0.73744,-0.17349 -1.23513,-0.34971 -1.62519,-1.04443 -0.43313,-0.85502 -0.76423,-1.52104 -0.59801,-2.50956 0.0699,-0.35485 0.1253,-0.67623 0.2182,-1.02229 0.0178,-0.0663 0.13931,-0.43215 0.13269,-0.43998 -0.0229,-0.0272 -0.0875,0.12416 -0.0877,0.0607 5.30625,-6.01045 -3.193798,-13.51462 -8.500048,-7.50417 z" />
    <path
       style="fill:#000000;stroke-width:43.733"
       id="path24"
       d="m 129.95948,116.18603 c -2.02249,0.66221 -3.96398,1.56025 -5.77085,2.68786 -0.74996,0.46803 -1.46067,0.99621 -2.191,1.49432 -6.59119,4.56485 -0.13551,13.88621 6.45568,9.32135 v 0 c 0.9471,-0.67149 1.56215,-1.15979 2.56339,-1.69473 0.35298,-0.18859 0.72458,-0.34015 1.09012,-0.50308 0.75615,-0.33702 0.54837,-0.10112 0.75097,-0.34382 7.75123,-2.04941 4.85293,-13.01131 -2.89831,-10.9619 z" />
  </g>
</svg>
